<mxfile host="app.diagrams.net" modified="2023-12-04T06:51:14.471Z" agent="Mozilla/5.0 (Windows NT 10.0; Win64; x64) AppleWebKit/537.36 (KHTML, like Gecko) Chrome/115.0.0.0 Safari/537.36" version="22.1.5" etag="4syIXA-3HvKJFCpBKg4-" type="github">
  <diagram name="Trang-1" id="sm1h0GcSnK62wvaNjeTo">
    <mxGraphModel>
      <root>
        <mxCell id="0" />
        <mxCell id="1" parent="0" />
      </root>
    </mxGraphModel>
  </diagram>
</mxfile>
